<svg width="20" height="24" viewBox="0 0 20 24" fill="none" xmlns="http://www.w3.org/2000/svg">
<path d="M5.91483 10.0434C5.91483 7.92259 7.63412 6.2033 9.75497 6.2033C11.8758 6.2033 13.5951 7.92259 13.5951 10.0434C13.5951 12.1643 11.8758 13.8836 9.75497 13.8836C7.63412 13.8836 5.91483 12.1643 5.91483 10.0434Z" fill="#F5F5F5"/>
<path fill-rule="evenodd" clip-rule="evenodd" d="M0.034741 8.71699C0.440778 3.79104 4.55716 0 9.49982 0H10.0102C14.9528 0 19.0692 3.79104 19.4753 8.71699C19.6939 11.3692 18.8746 14.0027 17.1901 16.0628L11.5267 22.989C10.611 24.1088 8.89899 24.1088 7.98329 22.989L2.3199 16.0628C0.635367 14.0027 -0.183873 11.3692 0.034741 8.71699ZM9.75497 4.43093C6.65527 4.43093 4.14246 6.94374 4.14246 10.0434C4.14246 13.1431 6.65527 15.656 9.75497 15.656C12.8547 15.656 15.3675 13.1431 15.3675 10.0434C15.3675 6.94374 12.8547 4.43093 9.75497 4.43093Z" fill="#F5F5F5"/>
</svg>
